<?xml version="1.0" encoding="utf-8" standalone="no"?>
<!DOCTYPE svg PUBLIC "-//W3C//DTD SVG 1.1//EN"
  "http://www.w3.org/Graphics/SVG/1.1/DTD/svg11.dtd">
<svg xmlns:xlink="http://www.w3.org/1999/xlink" width="601.162812pt" height="334.975938pt" viewBox="0 0 601.162812 334.975938" xmlns="http://www.w3.org/2000/svg" version="1.1">
 <metadata>
  <rdf:RDF xmlns:dc="http://purl.org/dc/elements/1.1/" xmlns:cc="http://creativecommons.org/ns#" xmlns:rdf="http://www.w3.org/1999/02/22-rdf-syntax-ns#">
   <cc:Work>
    <dc:type rdf:resource="http://purl.org/dc/dcmitype/StillImage"/>
    <dc:date>2023-10-10T20:13:19.476532</dc:date>
    <dc:format>image/svg+xml</dc:format>
    <dc:creator>
     <cc:Agent>
      <dc:title>Matplotlib v3.7.1, https://matplotlib.org/</dc:title>
     </cc:Agent>
    </dc:creator>
   </cc:Work>
  </rdf:RDF>
 </metadata>
 <defs>
  <style type="text/css">*{stroke-linejoin: round; stroke-linecap: butt}</style>
 </defs>
 <g id="figure_1">
  <g id="patch_1">
   <path d="M 0 334.975938 
L 601.162812 334.975938 
L 601.162812 0 
L 0 0 
L 0 334.975938 
z
" style="fill: none"/>
  </g>
  <g id="axes_1">
   <g id="patch_2">
    <path d="M 43.162813 296.877188 
L 601.162812 296.877188 
L 601.162812 19.677188 
L 43.162813 19.677188 
L 43.162813 296.877188 
z
" style="fill: none"/>
   </g>
   <g id="matplotlib.axis_1">
    <g id="xtick_1">
     <g id="line2d_1">
      <defs>
       <path id="me229ef5d32" d="M 0 0 
L 0 3.5 
" style="stroke: #000000; stroke-width: 0.8"/>
      </defs>
      <g>
       <use xlink:href="#me229ef5d32" x="68.526449" y="296.877188" style="stroke: #000000; stroke-width: 0.8"/>
      </g>
     </g>
     <g id="text_1">
      <!-- 0.00 -->
      <g transform="translate(57.393636 311.475625) scale(0.1 -0.1)">
       <defs>
        <path id="DejaVuSans-30" d="M 2034 4250 
Q 1547 4250 1301 3770 
Q 1056 3291 1056 2328 
Q 1056 1369 1301 889 
Q 1547 409 2034 409 
Q 2525 409 2770 889 
Q 3016 1369 3016 2328 
Q 3016 3291 2770 3770 
Q 2525 4250 2034 4250 
z
M 2034 4750 
Q 2819 4750 3233 4129 
Q 3647 3509 3647 2328 
Q 3647 1150 3233 529 
Q 2819 -91 2034 -91 
Q 1250 -91 836 529 
Q 422 1150 422 2328 
Q 422 3509 836 4129 
Q 1250 4750 2034 4750 
z
" transform="scale(0.015625)"/>
        <path id="DejaVuSans-2e" d="M 684 794 
L 1344 794 
L 1344 0 
L 684 0 
L 684 794 
z
" transform="scale(0.015625)"/>
       </defs>
       <use xlink:href="#DejaVuSans-30"/>
       <use xlink:href="#DejaVuSans-2e" x="63.623047"/>
       <use xlink:href="#DejaVuSans-30" x="95.410156"/>
       <use xlink:href="#DejaVuSans-30" x="159.033203"/>
      </g>
     </g>
    </g>
    <g id="xtick_2">
     <g id="line2d_2">
      <g>
       <use xlink:href="#me229ef5d32" x="171.8672" y="296.877188" style="stroke: #000000; stroke-width: 0.8"/>
      </g>
     </g>
     <g id="text_2">
      <!-- 0.02 -->
      <g transform="translate(160.734388 311.475625) scale(0.1 -0.1)">
       <defs>
        <path id="DejaVuSans-32" d="M 1228 531 
L 3431 531 
L 3431 0 
L 469 0 
L 469 531 
Q 828 903 1448 1529 
Q 2069 2156 2228 2338 
Q 2531 2678 2651 2914 
Q 2772 3150 2772 3378 
Q 2772 3750 2511 3984 
Q 2250 4219 1831 4219 
Q 1534 4219 1204 4116 
Q 875 4013 500 3803 
L 500 4441 
Q 881 4594 1212 4672 
Q 1544 4750 1819 4750 
Q 2544 4750 2975 4387 
Q 3406 4025 3406 3419 
Q 3406 3131 3298 2873 
Q 3191 2616 2906 2266 
Q 2828 2175 2409 1742 
Q 1991 1309 1228 531 
z
" transform="scale(0.015625)"/>
       </defs>
       <use xlink:href="#DejaVuSans-30"/>
       <use xlink:href="#DejaVuSans-2e" x="63.623047"/>
       <use xlink:href="#DejaVuSans-30" x="95.410156"/>
       <use xlink:href="#DejaVuSans-32" x="159.033203"/>
      </g>
     </g>
    </g>
    <g id="xtick_3">
     <g id="line2d_3">
      <g>
       <use xlink:href="#me229ef5d32" x="275.207952" y="296.877188" style="stroke: #000000; stroke-width: 0.8"/>
      </g>
     </g>
     <g id="text_3">
      <!-- 0.04 -->
      <g transform="translate(264.075139 311.475625) scale(0.1 -0.1)">
       <defs>
        <path id="DejaVuSans-34" d="M 2419 4116 
L 825 1625 
L 2419 1625 
L 2419 4116 
z
M 2253 4666 
L 3047 4666 
L 3047 1625 
L 3713 1625 
L 3713 1100 
L 3047 1100 
L 3047 0 
L 2419 0 
L 2419 1100 
L 313 1100 
L 313 1709 
L 2253 4666 
z
" transform="scale(0.015625)"/>
       </defs>
       <use xlink:href="#DejaVuSans-30"/>
       <use xlink:href="#DejaVuSans-2e" x="63.623047"/>
       <use xlink:href="#DejaVuSans-30" x="95.410156"/>
       <use xlink:href="#DejaVuSans-34" x="159.033203"/>
      </g>
     </g>
    </g>
    <g id="xtick_4">
     <g id="line2d_4">
      <g>
       <use xlink:href="#me229ef5d32" x="378.548703" y="296.877188" style="stroke: #000000; stroke-width: 0.8"/>
      </g>
     </g>
     <g id="text_4">
      <!-- 0.06 -->
      <g transform="translate(367.415891 311.475625) scale(0.1 -0.1)">
       <defs>
        <path id="DejaVuSans-36" d="M 2113 2584 
Q 1688 2584 1439 2293 
Q 1191 2003 1191 1497 
Q 1191 994 1439 701 
Q 1688 409 2113 409 
Q 2538 409 2786 701 
Q 3034 994 3034 1497 
Q 3034 2003 2786 2293 
Q 2538 2584 2113 2584 
z
M 3366 4563 
L 3366 3988 
Q 3128 4100 2886 4159 
Q 2644 4219 2406 4219 
Q 1781 4219 1451 3797 
Q 1122 3375 1075 2522 
Q 1259 2794 1537 2939 
Q 1816 3084 2150 3084 
Q 2853 3084 3261 2657 
Q 3669 2231 3669 1497 
Q 3669 778 3244 343 
Q 2819 -91 2113 -91 
Q 1303 -91 875 529 
Q 447 1150 447 2328 
Q 447 3434 972 4092 
Q 1497 4750 2381 4750 
Q 2619 4750 2861 4703 
Q 3103 4656 3366 4563 
z
" transform="scale(0.015625)"/>
       </defs>
       <use xlink:href="#DejaVuSans-30"/>
       <use xlink:href="#DejaVuSans-2e" x="63.623047"/>
       <use xlink:href="#DejaVuSans-30" x="95.410156"/>
       <use xlink:href="#DejaVuSans-36" x="159.033203"/>
      </g>
     </g>
    </g>
    <g id="xtick_5">
     <g id="line2d_5">
      <g>
       <use xlink:href="#me229ef5d32" x="481.889455" y="296.877188" style="stroke: #000000; stroke-width: 0.8"/>
      </g>
     </g>
     <g id="text_5">
      <!-- 0.08 -->
      <g transform="translate(470.756642 311.475625) scale(0.1 -0.1)">
       <defs>
        <path id="DejaVuSans-38" d="M 2034 2216 
Q 1584 2216 1326 1975 
Q 1069 1734 1069 1313 
Q 1069 891 1326 650 
Q 1584 409 2034 409 
Q 2484 409 2743 651 
Q 3003 894 3003 1313 
Q 3003 1734 2745 1975 
Q 2488 2216 2034 2216 
z
M 1403 2484 
Q 997 2584 770 2862 
Q 544 3141 544 3541 
Q 544 4100 942 4425 
Q 1341 4750 2034 4750 
Q 2731 4750 3128 4425 
Q 3525 4100 3525 3541 
Q 3525 3141 3298 2862 
Q 3072 2584 2669 2484 
Q 3125 2378 3379 2068 
Q 3634 1759 3634 1313 
Q 3634 634 3220 271 
Q 2806 -91 2034 -91 
Q 1263 -91 848 271 
Q 434 634 434 1313 
Q 434 1759 690 2068 
Q 947 2378 1403 2484 
z
M 1172 3481 
Q 1172 3119 1398 2916 
Q 1625 2713 2034 2713 
Q 2441 2713 2670 2916 
Q 2900 3119 2900 3481 
Q 2900 3844 2670 4047 
Q 2441 4250 2034 4250 
Q 1625 4250 1398 4047 
Q 1172 3844 1172 3481 
z
" transform="scale(0.015625)"/>
       </defs>
       <use xlink:href="#DejaVuSans-30"/>
       <use xlink:href="#DejaVuSans-2e" x="63.623047"/>
       <use xlink:href="#DejaVuSans-30" x="95.410156"/>
       <use xlink:href="#DejaVuSans-38" x="159.033203"/>
      </g>
     </g>
    </g>
    <g id="xtick_6">
     <g id="line2d_6">
      <g>
       <use xlink:href="#me229ef5d32" x="585.230206" y="296.877188" style="stroke: #000000; stroke-width: 0.8"/>
      </g>
     </g>
     <g id="text_6">
      <!-- 0.10 -->
      <g transform="translate(574.097393 311.475625) scale(0.1 -0.1)">
       <defs>
        <path id="DejaVuSans-31" d="M 794 531 
L 1825 531 
L 1825 4091 
L 703 3866 
L 703 4441 
L 1819 4666 
L 2450 4666 
L 2450 531 
L 3481 531 
L 3481 0 
L 794 0 
L 794 531 
z
" transform="scale(0.015625)"/>
       </defs>
       <use xlink:href="#DejaVuSans-30"/>
       <use xlink:href="#DejaVuSans-2e" x="63.623047"/>
       <use xlink:href="#DejaVuSans-31" x="95.410156"/>
       <use xlink:href="#DejaVuSans-30" x="159.033203"/>
      </g>
     </g>
    </g>
    <g id="text_7">
     <!-- Time (s) -->
     <g transform="translate(285.570781 331.2325) scale(0.18 -0.18)">
      <defs>
       <path id="DejaVuSans-54" d="M -19 4666 
L 3928 4666 
L 3928 4134 
L 2272 4134 
L 2272 0 
L 1638 0 
L 1638 4134 
L -19 4134 
L -19 4666 
z
" transform="scale(0.015625)"/>
       <path id="DejaVuSans-69" d="M 603 3500 
L 1178 3500 
L 1178 0 
L 603 0 
L 603 3500 
z
M 603 4863 
L 1178 4863 
L 1178 4134 
L 603 4134 
L 603 4863 
z
" transform="scale(0.015625)"/>
       <path id="DejaVuSans-6d" d="M 3328 2828 
Q 3544 3216 3844 3400 
Q 4144 3584 4550 3584 
Q 5097 3584 5394 3201 
Q 5691 2819 5691 2113 
L 5691 0 
L 5113 0 
L 5113 2094 
Q 5113 2597 4934 2840 
Q 4756 3084 4391 3084 
Q 3944 3084 3684 2787 
Q 3425 2491 3425 1978 
L 3425 0 
L 2847 0 
L 2847 2094 
Q 2847 2600 2669 2842 
Q 2491 3084 2119 3084 
Q 1678 3084 1418 2786 
Q 1159 2488 1159 1978 
L 1159 0 
L 581 0 
L 581 3500 
L 1159 3500 
L 1159 2956 
Q 1356 3278 1631 3431 
Q 1906 3584 2284 3584 
Q 2666 3584 2933 3390 
Q 3200 3197 3328 2828 
z
" transform="scale(0.015625)"/>
       <path id="DejaVuSans-65" d="M 3597 1894 
L 3597 1613 
L 953 1613 
Q 991 1019 1311 708 
Q 1631 397 2203 397 
Q 2534 397 2845 478 
Q 3156 559 3463 722 
L 3463 178 
Q 3153 47 2828 -22 
Q 2503 -91 2169 -91 
Q 1331 -91 842 396 
Q 353 884 353 1716 
Q 353 2575 817 3079 
Q 1281 3584 2069 3584 
Q 2775 3584 3186 3129 
Q 3597 2675 3597 1894 
z
M 3022 2063 
Q 3016 2534 2758 2815 
Q 2500 3097 2075 3097 
Q 1594 3097 1305 2825 
Q 1016 2553 972 2059 
L 3022 2063 
z
" transform="scale(0.015625)"/>
       <path id="DejaVuSans-20" transform="scale(0.015625)"/>
       <path id="DejaVuSans-28" d="M 1984 4856 
Q 1566 4138 1362 3434 
Q 1159 2731 1159 2009 
Q 1159 1288 1364 580 
Q 1569 -128 1984 -844 
L 1484 -844 
Q 1016 -109 783 600 
Q 550 1309 550 2009 
Q 550 2706 781 3412 
Q 1013 4119 1484 4856 
L 1984 4856 
z
" transform="scale(0.015625)"/>
       <path id="DejaVuSans-73" d="M 2834 3397 
L 2834 2853 
Q 2591 2978 2328 3040 
Q 2066 3103 1784 3103 
Q 1356 3103 1142 2972 
Q 928 2841 928 2578 
Q 928 2378 1081 2264 
Q 1234 2150 1697 2047 
L 1894 2003 
Q 2506 1872 2764 1633 
Q 3022 1394 3022 966 
Q 3022 478 2636 193 
Q 2250 -91 1575 -91 
Q 1294 -91 989 -36 
Q 684 19 347 128 
L 347 722 
Q 666 556 975 473 
Q 1284 391 1588 391 
Q 1994 391 2212 530 
Q 2431 669 2431 922 
Q 2431 1156 2273 1281 
Q 2116 1406 1581 1522 
L 1381 1569 
Q 847 1681 609 1914 
Q 372 2147 372 2553 
Q 372 3047 722 3315 
Q 1072 3584 1716 3584 
Q 2034 3584 2315 3537 
Q 2597 3491 2834 3397 
z
" transform="scale(0.015625)"/>
       <path id="DejaVuSans-29" d="M 513 4856 
L 1013 4856 
Q 1481 4119 1714 3412 
Q 1947 2706 1947 2009 
Q 1947 1309 1714 600 
Q 1481 -109 1013 -844 
L 513 -844 
Q 928 -128 1133 580 
Q 1338 1288 1338 2009 
Q 1338 2731 1133 3434 
Q 928 4138 513 4856 
z
" transform="scale(0.015625)"/>
      </defs>
      <use xlink:href="#DejaVuSans-54"/>
      <use xlink:href="#DejaVuSans-69" x="57.958984"/>
      <use xlink:href="#DejaVuSans-6d" x="85.742188"/>
      <use xlink:href="#DejaVuSans-65" x="183.154297"/>
      <use xlink:href="#DejaVuSans-20" x="244.677734"/>
      <use xlink:href="#DejaVuSans-28" x="276.464844"/>
      <use xlink:href="#DejaVuSans-73" x="315.478516"/>
      <use xlink:href="#DejaVuSans-29" x="367.578125"/>
     </g>
    </g>
   </g>
   <g id="matplotlib.axis_2">
    <g id="ytick_1">
     <g id="line2d_7">
      <defs>
       <path id="m0ae137b85f" d="M 0 0 
L -3.5 0 
" style="stroke: #000000; stroke-width: 0.8"/>
      </defs>
      <g>
       <use xlink:href="#m0ae137b85f" x="43.162813" y="271.158635" style="stroke: #000000; stroke-width: 0.8"/>
      </g>
     </g>
     <g id="text_8">
      <!-- −4 -->
      <g transform="translate(21.420625 274.957854) scale(0.1 -0.1)">
       <defs>
        <path id="DejaVuSans-2212" d="M 678 2272 
L 4684 2272 
L 4684 1741 
L 678 1741 
L 678 2272 
z
" transform="scale(0.015625)"/>
       </defs>
       <use xlink:href="#DejaVuSans-2212"/>
       <use xlink:href="#DejaVuSans-34" x="83.789062"/>
      </g>
     </g>
    </g>
    <g id="ytick_2">
     <g id="line2d_8">
      <g>
       <use xlink:href="#m0ae137b85f" x="43.162813" y="223.513658" style="stroke: #000000; stroke-width: 0.8"/>
      </g>
     </g>
     <g id="text_9">
      <!-- −2 -->
      <g transform="translate(21.420625 227.312877) scale(0.1 -0.1)">
       <use xlink:href="#DejaVuSans-2212"/>
       <use xlink:href="#DejaVuSans-32" x="83.789062"/>
      </g>
     </g>
    </g>
    <g id="ytick_3">
     <g id="line2d_9">
      <g>
       <use xlink:href="#m0ae137b85f" x="43.162813" y="175.868681" style="stroke: #000000; stroke-width: 0.8"/>
      </g>
     </g>
     <g id="text_10">
      <!-- 0 -->
      <g transform="translate(29.800313 179.6679) scale(0.1 -0.1)">
       <use xlink:href="#DejaVuSans-30"/>
      </g>
     </g>
    </g>
    <g id="ytick_4">
     <g id="line2d_10">
      <g>
       <use xlink:href="#m0ae137b85f" x="43.162813" y="128.223704" style="stroke: #000000; stroke-width: 0.8"/>
      </g>
     </g>
     <g id="text_11">
      <!-- 2 -->
      <g transform="translate(29.800313 132.022923) scale(0.1 -0.1)">
       <use xlink:href="#DejaVuSans-32"/>
      </g>
     </g>
    </g>
    <g id="ytick_5">
     <g id="line2d_11">
      <g>
       <use xlink:href="#m0ae137b85f" x="43.162813" y="80.578727" style="stroke: #000000; stroke-width: 0.8"/>
      </g>
     </g>
     <g id="text_12">
      <!-- 4 -->
      <g transform="translate(29.800313 84.377946) scale(0.1 -0.1)">
       <use xlink:href="#DejaVuSans-34"/>
      </g>
     </g>
    </g>
    <g id="ytick_6">
     <g id="line2d_12">
      <g>
       <use xlink:href="#m0ae137b85f" x="43.162813" y="32.93375" style="stroke: #000000; stroke-width: 0.8"/>
      </g>
     </g>
     <g id="text_13">
      <!-- 6 -->
      <g transform="translate(29.800313 36.732969) scale(0.1 -0.1)">
       <use xlink:href="#DejaVuSans-36"/>
      </g>
     </g>
    </g>
    <g id="text_14">
     <!-- Amplitude -->
     <g transform="translate(13.677188 204.397969) rotate(-90) scale(0.18 -0.18)">
      <defs>
       <path id="DejaVuSans-41" d="M 2188 4044 
L 1331 1722 
L 3047 1722 
L 2188 4044 
z
M 1831 4666 
L 2547 4666 
L 4325 0 
L 3669 0 
L 3244 1197 
L 1141 1197 
L 716 0 
L 50 0 
L 1831 4666 
z
" transform="scale(0.015625)"/>
       <path id="DejaVuSans-70" d="M 1159 525 
L 1159 -1331 
L 581 -1331 
L 581 3500 
L 1159 3500 
L 1159 2969 
Q 1341 3281 1617 3432 
Q 1894 3584 2278 3584 
Q 2916 3584 3314 3078 
Q 3713 2572 3713 1747 
Q 3713 922 3314 415 
Q 2916 -91 2278 -91 
Q 1894 -91 1617 61 
Q 1341 213 1159 525 
z
M 3116 1747 
Q 3116 2381 2855 2742 
Q 2594 3103 2138 3103 
Q 1681 3103 1420 2742 
Q 1159 2381 1159 1747 
Q 1159 1113 1420 752 
Q 1681 391 2138 391 
Q 2594 391 2855 752 
Q 3116 1113 3116 1747 
z
" transform="scale(0.015625)"/>
       <path id="DejaVuSans-6c" d="M 603 4863 
L 1178 4863 
L 1178 0 
L 603 0 
L 603 4863 
z
" transform="scale(0.015625)"/>
       <path id="DejaVuSans-74" d="M 1172 4494 
L 1172 3500 
L 2356 3500 
L 2356 3053 
L 1172 3053 
L 1172 1153 
Q 1172 725 1289 603 
Q 1406 481 1766 481 
L 2356 481 
L 2356 0 
L 1766 0 
Q 1100 0 847 248 
Q 594 497 594 1153 
L 594 3053 
L 172 3053 
L 172 3500 
L 594 3500 
L 594 4494 
L 1172 4494 
z
" transform="scale(0.015625)"/>
       <path id="DejaVuSans-75" d="M 544 1381 
L 544 3500 
L 1119 3500 
L 1119 1403 
Q 1119 906 1312 657 
Q 1506 409 1894 409 
Q 2359 409 2629 706 
Q 2900 1003 2900 1516 
L 2900 3500 
L 3475 3500 
L 3475 0 
L 2900 0 
L 2900 538 
Q 2691 219 2414 64 
Q 2138 -91 1772 -91 
Q 1169 -91 856 284 
Q 544 659 544 1381 
z
M 1991 3584 
L 1991 3584 
z
" transform="scale(0.015625)"/>
       <path id="DejaVuSans-64" d="M 2906 2969 
L 2906 4863 
L 3481 4863 
L 3481 0 
L 2906 0 
L 2906 525 
Q 2725 213 2448 61 
Q 2172 -91 1784 -91 
Q 1150 -91 751 415 
Q 353 922 353 1747 
Q 353 2572 751 3078 
Q 1150 3584 1784 3584 
Q 2172 3584 2448 3432 
Q 2725 3281 2906 2969 
z
M 947 1747 
Q 947 1113 1208 752 
Q 1469 391 1925 391 
Q 2381 391 2643 752 
Q 2906 1113 2906 1747 
Q 2906 2381 2643 2742 
Q 2381 3103 1925 3103 
Q 1469 3103 1208 2742 
Q 947 2381 947 1747 
z
" transform="scale(0.015625)"/>
      </defs>
      <use xlink:href="#DejaVuSans-41"/>
      <use xlink:href="#DejaVuSans-6d" x="68.408203"/>
      <use xlink:href="#DejaVuSans-70" x="165.820312"/>
      <use xlink:href="#DejaVuSans-6c" x="229.296875"/>
      <use xlink:href="#DejaVuSans-69" x="257.080078"/>
      <use xlink:href="#DejaVuSans-74" x="284.863281"/>
      <use xlink:href="#DejaVuSans-75" x="324.072266"/>
      <use xlink:href="#DejaVuSans-64" x="387.451172"/>
      <use xlink:href="#DejaVuSans-65" x="450.927734"/>
     </g>
    </g>
   </g>
   <g id="line2d_13">
    <path d="M 68.526449 128.223704 
L 70.557571 128.314503 
L 72.588693 128.586551 
L 75.127595 129.179851 
L 77.666498 130.051151 
L 80.205401 131.195264 
L 82.744303 132.605377 
L 85.283206 134.273094 
L 87.822108 136.188485 
L 90.868791 138.797726 
L 93.915474 141.724753 
L 96.962157 144.944474 
L 100.516621 149.033797 
L 104.578865 154.087654 
L 109.148889 160.165753 
L 114.734475 167.9932 
L 133.014573 193.967931 
L 137.584598 199.896983 
L 141.646842 204.78189 
L 145.201306 208.697314 
L 148.247989 211.750213 
L 151.294672 214.495523 
L 154.341355 216.909709 
L 156.880257 218.653569 
L 159.41916 220.142674 
L 161.958062 221.368157 
L 164.496965 222.322721 
L 167.035867 223.000683 
L 169.57477 223.398004 
L 171.605892 223.512155 
L 173.637014 223.444715 
L 175.668136 223.19594 
L 178.207039 222.631482 
L 180.745941 221.788583 
L 183.284844 220.672261 
L 185.823746 219.289164 
L 188.362649 217.647527 
L 190.901551 215.757125 
L 193.948234 213.176222 
L 196.994917 210.275504 
L 200.0416 207.079839 
L 203.596064 203.015459 
L 207.658308 197.985638 
L 212.228333 191.928448 
L 217.813918 184.117188 
L 236.601797 157.439708 
L 241.171822 151.532784 
L 245.234066 146.67254 
L 248.788529 142.782244 
L 251.835212 139.75329 
L 254.881895 137.033929 
L 257.928578 134.647475 
L 260.467481 132.927914 
L 263.006383 131.464038 
L 265.545286 130.264561 
L 268.084188 129.336626 
L 270.623091 128.685758 
L 273.161993 128.315833 
L 275.193116 128.223709 
L 277.224238 128.313181 
L 279.25536 128.583909 
L 281.794262 129.175572 
L 284.333165 130.045261 
L 286.872067 131.187798 
L 289.41097 132.59638 
L 291.949872 134.262619 
L 294.488775 136.176595 
L 297.535458 138.784231 
L 300.582141 141.709769 
L 303.628824 144.928129 
L 307.183288 149.016043 
L 311.245532 154.068544 
L 315.815556 160.145466 
L 321.401142 167.972008 
L 339.68124 193.948051 
L 344.251265 199.878425 
L 348.313509 204.764807 
L 351.867972 208.681737 
L 354.914655 211.736072 
L 357.961338 214.482939 
L 361.008021 216.89879 
L 363.546924 218.64411 
L 366.085826 220.134731 
L 368.624729 221.361777 
L 371.163632 222.317942 
L 373.702534 222.997533 
L 376.241437 223.396503 
L 378.272559 223.511979 
L 380.303681 223.445865 
L 382.334803 223.198413 
L 384.873705 222.635594 
L 387.412608 221.794308 
L 389.95151 220.679566 
L 392.490413 219.298006 
L 395.029315 217.657853 
L 397.568218 215.768873 
L 400.614901 213.189583 
L 403.661584 210.290366 
L 406.708267 207.096072 
L 410.262731 203.033116 
L 414.324975 198.004669 
L 418.894999 191.948678 
L 424.480585 184.138352 
L 443.268464 157.459526 
L 447.838488 151.551261 
L 451.900732 146.689524 
L 455.455196 142.79771 
L 458.501879 139.767309 
L 461.548562 137.046383 
L 464.595245 134.658255 
L 467.134147 132.937229 
L 469.67305 131.471831 
L 472.211953 130.270787 
L 474.750855 129.341248 
L 477.289758 128.688749 
L 479.82866 128.317174 
L 481.859782 128.223724 
L 483.890904 128.31187 
L 485.922026 128.581277 
L 488.460929 129.171303 
L 490.999831 130.039381 
L 493.538734 131.180341 
L 496.077636 132.587391 
L 498.616539 134.252152 
L 501.155441 136.164712 
L 504.202125 138.770743 
L 507.248808 141.694792 
L 510.295491 144.911791 
L 513.849954 148.998295 
L 517.912198 154.049439 
L 522.482223 160.125182 
L 528.067808 167.950817 
L 546.347907 193.928168 
L 550.917931 199.859861 
L 554.980175 204.747719 
L 558.534639 208.666153 
L 561.581322 211.721923 
L 564.628005 214.470346 
L 567.674688 216.887862 
L 570.213591 218.634641 
L 572.752493 220.126778 
L 575.291396 221.355387 
L 575.799176 221.568814 
L 575.799176 221.568814 
" clip-path="url(#pceb048c1c0)" style="fill: none; stroke-dasharray: 7.4,3.2; stroke-dashoffset: 0; stroke: #ff0000; stroke-width: 2"/>
   </g>
   <g id="line2d_14">
    <path d="M 68.526449 171.73195 
L 74.619815 166.661561 
L 79.18984 163.143181 
L 83.252084 160.30915 
L 86.806547 158.107216 
L 89.85323 156.455934 
L 92.899913 155.044211 
L 95.946596 153.889469 
L 98.993279 153.005957 
L 101.532182 152.484857 
L 104.071084 152.164212 
L 106.609987 152.04677 
L 109.148889 152.133538 
L 111.687792 152.423772 
L 114.226695 152.914985 
L 116.765597 153.602965 
L 119.81228 154.679855 
L 122.858963 156.018221 
L 125.905646 157.601548 
L 129.46011 159.732143 
L 133.014573 162.133676 
L 137.076817 165.158135 
L 141.646842 168.837779 
L 148.247989 174.469043 
L 158.911379 183.593106 
L 163.989184 187.611588 
L 168.051428 190.543256 
L 171.605892 192.846618 
L 175.160355 194.864917 
L 178.207039 196.342169 
L 181.253722 197.566772 
L 184.300405 198.523613 
L 186.839307 199.107819 
L 189.37821 199.492811 
L 191.917112 199.675289 
L 194.456015 199.653687 
L 196.994917 199.428192 
L 199.53382 199.000736 
L 202.072722 198.374984 
L 205.119405 197.369999 
L 208.166089 196.099682 
L 211.212772 194.579708 
L 214.259455 192.828833 
L 217.813918 190.523286 
L 221.876162 187.589534 
L 226.446187 183.985384 
L 232.539553 178.847961 
L 246.249627 167.148502 
L 250.819651 163.590553 
L 254.881895 160.710892 
L 258.436359 158.461768 
L 261.483042 156.765267 
L 264.529725 155.304508 
L 267.576408 154.097518 
L 270.623091 153.15919 
L 273.161993 152.590936 
L 275.700896 152.222228 
L 278.239799 152.056226 
L 280.778701 152.094352 
L 283.317604 152.336281 
L 285.856506 152.779938 
L 288.395409 153.42152 
L 291.442092 154.444819 
L 294.488775 155.732496 
L 297.535458 157.268659 
L 300.582141 159.034353 
L 304.136604 161.355215 
L 308.198849 164.303555 
L 312.768873 167.920023 
L 318.862239 173.06658 
L 332.064532 184.343783 
L 336.634557 187.920869 
L 340.696801 190.822821 
L 344.251265 193.09513 
L 347.297948 194.813932 
L 350.344631 196.298944 
L 353.391314 197.53184 
L 356.437997 198.497406 
L 358.976899 199.089134 
L 361.515802 199.481808 
L 364.054704 199.672062 
L 366.593607 199.658265 
L 369.132509 199.440534 
L 371.671412 199.020738 
L 374.210315 198.402473 
L 377.256998 197.406157 
L 380.303681 196.144062 
L 383.350364 194.631763 
L 386.397047 192.887921 
L 389.95151 190.58965 
L 394.013754 187.662845 
L 398.583779 184.064582 
L 404.169365 179.368648 
L 418.894999 166.817275 
L 423.465024 163.286016 
L 427.527268 160.437197 
L 431.081731 158.220009 
L 434.128414 156.554133 
L 437.175098 155.126606 
L 440.221781 153.955042 
L 443.268464 153.053899 
L 445.807366 152.517646 
L 448.346269 152.181566 
L 450.885171 152.04854 
L 453.424074 152.119709 
L 455.962976 152.394463 
L 458.501879 152.870447 
L 461.040781 153.54358 
L 464.087464 154.603336 
L 467.134147 155.925513 
L 470.180831 157.493795 
L 473.735294 159.608529 
L 477.289758 161.996277 
L 481.352002 165.007819 
L 485.922026 168.676881 
L 492.523173 174.300786 
L 503.694344 183.850564 
L 508.264369 187.464615 
L 512.326613 190.410087 
L 515.881076 192.727935 
L 519.43554 194.762711 
L 522.482223 196.255464 
L 525.528906 197.496638 
L 528.575589 198.470916 
L 531.114491 199.070158 
L 533.653394 199.47051 
L 536.192297 199.668538 
L 538.731199 199.662545 
L 541.270102 199.452582 
L 543.809004 199.04045 
L 546.347907 198.42968 
L 549.39459 197.442046 
L 552.441273 196.188189 
L 555.487956 194.683583 
L 558.534639 192.946795 
L 562.089102 190.655831 
L 566.151346 187.736008 
L 570.721371 184.143677 
L 575.799176 179.887632 
L 575.799176 179.887632 
" clip-path="url(#pceb048c1c0)" style="fill: none; stroke-dasharray: 7.4,3.2; stroke-dashoffset: 0; stroke: #0000ff; stroke-width: 2"/>
   </g>
   <g id="line2d_15">
    <path d="M 68.526449 142.178595 
L 70.557571 138.285225 
L 72.588693 134.9643 
L 74.112034 132.880051 
L 75.635376 131.164316 
L 77.158717 129.831804 
L 78.682059 128.893936 
L 79.69762 128.49205 
L 80.713181 128.270737 
L 81.728742 128.230842 
L 82.744303 128.372516 
L 83.759864 128.69522 
L 84.775425 129.197723 
L 85.790986 129.87811 
L 87.314328 131.226368 
L 88.837669 132.957316 
L 90.361011 135.056116 
L 91.884352 137.504776 
L 93.915474 141.277192 
L 95.946596 145.576481 
L 98.485499 151.591063 
L 101.024401 158.183012 
L 104.578865 168.081235 
L 114.226695 195.401222 
L 116.765597 201.850698 
L 119.3045 207.682273 
L 121.335622 211.808868 
L 123.366744 215.388047 
L 124.890085 217.680058 
L 126.413427 219.613646 
L 127.936768 221.172237 
L 129.46011 222.34247 
L 130.475671 222.901776 
L 131.491232 223.281818 
L 132.506793 223.481147 
L 133.522354 223.499004 
L 134.537915 223.33532 
L 135.553476 222.990718 
L 136.569037 222.466514 
L 138.092378 221.348007 
L 139.61572 219.839634 
L 141.139061 217.954326 
L 142.662403 215.708245 
L 144.185745 213.120645 
L 146.216867 209.177996 
L 148.247989 204.728004 
L 150.786891 198.555972 
L 153.833574 190.451195 
L 157.895818 178.919255 
L 164.496965 160.101795 
L 167.543648 152.090581 
L 170.08255 146.025204 
L 172.113672 141.677528 
L 174.144794 137.850628 
L 175.668136 135.357599 
L 177.191478 133.211847 
L 178.714819 131.431764 
L 180.238161 130.032611 
L 181.761502 129.026381 
L 182.777063 128.578253 
L 183.792624 128.310369 
L 184.808185 128.223753 
L 185.823746 128.318732 
L 186.839307 128.594946 
L 187.854868 129.051341 
L 188.870429 129.686179 
L 190.393771 130.967538 
L 191.917112 132.633805 
L 193.440454 134.670698 
L 194.963795 137.060754 
L 196.994917 140.761036 
L 199.026039 144.996053 
L 201.057161 149.701299 
L 203.596064 156.134343 
L 206.642747 164.459205 
L 212.736113 181.981888 
L 216.798357 193.348508 
L 219.84504 201.212935 
L 222.383943 207.114785 
L 224.415065 211.307408 
L 226.446187 214.960254 
L 227.969528 217.311856 
L 229.49287 219.308192 
L 231.016211 220.932149 
L 232.539553 222.169805 
L 233.555114 222.774919 
L 234.570675 223.201253 
L 235.586236 223.44718 
L 236.601797 223.511765 
L 237.617358 223.39476 
L 238.632919 223.096611 
L 239.64848 222.618456 
L 240.664041 221.962116 
L 242.187383 220.649166 
L 243.710724 218.952341 
L 245.234066 216.886187 
L 246.757407 214.468416 
L 248.788529 210.733997 
L 250.819651 206.468535 
L 253.358554 200.489593 
L 255.897456 193.92512 
L 259.45192 184.050443 
L 269.099749 156.701642 
L 271.638652 150.222844 
L 274.177555 144.353952 
L 276.208677 140.192338 
L 278.239799 136.574121 
L 279.76314 134.250549 
L 281.286482 132.283744 
L 282.809823 130.690564 
L 284.333165 129.484668 
L 285.348726 128.901139 
L 286.364287 128.496624 
L 287.379848 128.272666 
L 288.395409 128.230118 
L 289.41097 128.369142 
L 290.426531 128.689208 
L 291.442092 129.189096 
L 292.457653 129.866902 
L 293.980994 131.21137 
L 295.504336 132.938657 
L 297.027677 135.033956 
L 298.551019 137.479305 
L 300.582141 141.247652 
L 302.613263 145.543321 
L 305.152165 151.554093 
L 307.691068 158.143112 
L 311.245532 168.038839 
L 320.893361 195.362014 
L 323.432264 201.814662 
L 325.971166 207.650267 
L 328.002288 211.780638 
L 330.03341 215.364024 
L 331.556752 217.659434 
L 333.080093 219.596599 
L 334.603435 221.158912 
L 336.126776 222.33298 
L 337.142337 222.894891 
L 338.157898 223.277564 
L 339.17346 223.479541 
L 340.189021 223.50005 
L 341.204582 223.339015 
L 342.220143 222.997049 
L 343.235704 222.475456 
L 344.759045 221.360798 
L 346.282387 219.856166 
L 347.805728 217.974456 
L 349.32907 215.731801 
L 350.852411 213.147424 
L 352.883533 209.208712 
L 354.914655 204.762189 
L 357.453558 198.593756 
L 360.500241 190.492105 
L 364.562485 178.962143 
L 371.163632 160.142358 
L 374.210315 152.127833 
L 376.749217 146.058718 
L 378.780339 141.707473 
L 380.811461 137.876547 
L 382.334803 135.380237 
L 383.858144 133.231009 
L 385.381486 131.447286 
L 386.904827 130.04436 
L 388.428169 129.034256 
L 389.44373 128.583505 
L 390.459291 128.31298 
L 391.474852 128.223711 
L 392.490413 128.316038 
L 393.505974 128.58961 
L 394.521535 129.043385 
L 395.537096 129.675631 
L 397.060437 130.953181 
L 398.583779 132.615764 
L 400.10712 134.649126 
L 401.630462 137.035837 
L 403.661584 140.731995 
L 405.692706 144.96333 
L 407.723828 149.665394 
L 410.262731 156.095233 
L 413.309414 164.417482 
L 419.40278 181.939262 
L 423.465024 193.308519 
L 426.511707 201.176532 
L 429.050609 207.082327 
L 431.081731 211.278667 
L 433.112853 214.935668 
L 434.636195 217.290636 
L 436.159536 219.290519 
L 437.682878 220.918175 
L 439.20622 222.159651 
L 440.221781 222.767361 
L 441.237342 223.19632 
L 442.252903 223.444892 
L 443.268464 223.512129 
L 444.284025 223.397775 
L 445.299586 223.102266 
L 446.315147 222.626729 
L 447.330708 221.972976 
L 448.854049 220.663825 
L 450.377391 218.970674 
L 451.900732 216.908037 
L 453.424074 214.493595 
L 455.455196 210.763275 
L 457.486318 206.501465 
L 460.02522 200.526378 
L 462.564123 193.964885 
L 466.118586 184.092779 
L 475.766416 156.740997 
L 478.305319 150.259075 
L 480.844221 144.386198 
L 482.875343 140.220838 
L 484.906465 136.598441 
L 486.429807 134.271489 
L 487.953148 132.301122 
L 489.47649 130.704232 
L 490.999831 129.494509 
L 492.015392 128.908379 
L 493.030953 128.501237 
L 494.046514 128.274633 
L 495.062075 128.229432 
L 496.077636 128.365805 
L 497.093197 128.683234 
L 498.108758 129.180507 
L 499.124319 129.855731 
L 500.647661 131.196409 
L 502.171003 132.920034 
L 503.694344 135.01183 
L 505.217686 137.453866 
L 507.248808 141.218139 
L 509.27993 145.510185 
L 511.818832 151.517143 
L 514.357735 158.103226 
L 517.912198 167.996448 
L 527.560028 195.32279 
L 530.09893 201.778605 
L 532.637833 207.618235 
L 534.668955 211.75238 
L 536.700077 215.33997 
L 538.223419 217.638777 
L 539.74676 219.579516 
L 541.270102 221.145549 
L 542.793443 222.323453 
L 543.809004 222.887968 
L 544.824565 223.273272 
L 545.840126 223.477895 
L 546.855687 223.501058 
L 547.871248 223.342673 
L 548.886809 223.003342 
L 549.90237 222.48436 
L 551.425712 221.373553 
L 552.949053 219.872661 
L 554.472395 217.994552 
L 555.995736 215.755324 
L 557.519078 213.174173 
L 559.5502 209.239401 
L 561.581322 204.796351 
L 564.120224 198.631521 
L 567.166908 190.533002 
L 571.229152 179.00503 
L 575.799176 165.844118 
L 575.799176 165.844118 
" clip-path="url(#pceb048c1c0)" style="fill: none; stroke-dasharray: 7.4,3.2; stroke-dashoffset: 0; stroke: #008000; stroke-width: 2"/>
   </g>
   <g id="line2d_16">
    <path d="M 68.526449 175.868681 
L 74.619815 160.275029 
L 77.666498 153.020238 
L 80.205401 147.450523 
L 82.744303 142.428442 
L 84.775425 138.870513 
L 86.806547 135.769153 
L 88.329889 133.766005 
L 89.85323 132.055241 
L 91.376572 130.648743 
L 92.899913 129.556277 
L 94.423255 128.78543 
L 95.946596 128.341555 
L 97.469938 128.227735 
L 98.993279 128.444761 
L 100.516621 128.991125 
L 102.039962 129.863033 
L 103.563304 131.054429 
L 105.086645 132.557041 
L 106.609987 134.360433 
L 108.133328 136.452081 
L 110.164451 139.663963 
L 112.195573 143.322622 
L 114.734475 148.454965 
L 117.273378 154.115587 
L 120.320061 161.451477 
L 124.890085 173.138154 
L 131.999012 191.382659 
L 135.045695 198.643121 
L 137.584598 204.219138 
L 140.1235 209.248826 
L 142.154622 212.813682 
L 144.185745 215.922625 
L 145.709086 217.931835 
L 147.232428 219.648934 
L 148.755769 221.062 
L 150.279111 222.161217 
L 151.802452 222.938954 
L 153.325794 223.389808 
L 154.849135 223.510649 
L 156.372477 223.300638 
L 157.895818 222.761232 
L 159.41916 221.896179 
L 160.942501 220.711485 
L 162.465843 219.215378 
L 163.989184 217.418246 
L 165.512526 215.332572 
L 167.543648 212.128138 
L 169.57477 208.476251 
L 172.113672 203.351296 
L 174.652575 197.696736 
L 177.699258 190.366204 
L 182.269283 178.683358 
L 189.37821 160.434427 
L 192.424893 153.168316 
L 194.963795 147.586014 
L 197.502698 142.548736 
L 199.53382 138.976964 
L 201.564942 135.860448 
L 203.088283 133.845183 
L 204.611625 132.121752 
L 206.134966 130.702125 
L 207.658308 129.596159 
L 209.18165 128.811535 
L 210.704991 128.353703 
L 212.228333 128.225841 
L 213.751674 128.428837 
L 215.275016 128.961282 
L 216.798357 129.819479 
L 218.321699 130.997466 
L 219.84504 132.487065 
L 221.368382 134.277929 
L 222.891723 136.357623 
L 224.922845 139.5546 
L 226.953967 143.199703 
L 229.49287 148.317253 
L 232.031772 153.965735 
L 235.078455 161.290886 
L 239.64848 172.969864 
L 246.757407 191.223164 
L 249.80409 198.494901 
L 252.342993 204.083469 
L 254.881895 209.128322 
L 256.913017 212.706999 
L 258.944139 215.831079 
L 260.467481 217.852393 
L 261.990822 219.582149 
L 263.514164 221.008335 
L 265.037505 222.121045 
L 266.560847 222.912553 
L 268.084188 223.377363 
L 269.60753 223.512245 
L 271.130871 223.316265 
L 272.654213 222.790781 
L 274.177555 221.939445 
L 275.700896 220.768167 
L 277.224238 219.285082 
L 278.747579 217.50049 
L 280.270921 215.426783 
L 282.302043 212.237274 
L 284.333165 208.598965 
L 286.872067 203.488836 
L 289.41097 197.846451 
L 292.457653 190.526704 
L 297.027677 178.851631 
L 304.136604 160.594018 
L 307.183288 153.316679 
L 309.72219 147.72186 
L 312.261093 142.669448 
L 314.292215 139.083878 
L 316.323337 135.952245 
L 318.354459 133.313193 
L 319.8778 131.676992 
L 321.401142 130.347683 
L 322.924483 129.334497 
L 324.447825 128.64447 
L 325.971166 128.282395 
L 327.494508 128.250785 
L 329.017849 128.549861 
L 330.541191 129.177545 
L 332.064532 130.129478 
L 333.587874 131.39905 
L 335.111215 132.977443 
L 336.634557 134.853697 
L 338.665679 137.795901 
L 340.696801 141.207935 
L 342.727923 145.047694 
L 345.266826 150.376239 
L 348.313509 157.409221 
L 351.867972 166.246792 
L 364.054704 197.170593 
L 367.101387 203.947447 
L 369.64029 209.007403 
L 371.671412 212.599855 
L 373.702534 215.739032 
L 375.733656 218.386197 
L 377.256998 220.028795 
L 378.780339 221.364721 
L 380.303681 222.384697 
L 381.827022 223.081641 
L 383.350364 223.450711 
L 384.873705 223.489344 
L 386.397047 223.197274 
L 387.920388 222.576527 
L 389.44373 221.631415 
L 390.967071 220.368501 
L 392.490413 218.796555 
L 394.013754 216.926494 
L 396.044876 213.992079 
L 398.075998 210.587208 
L 400.10712 206.7539 
L 402.646023 201.432296 
L 405.692706 194.405822 
L 409.24717 185.573111 
L 421.433902 154.642201 
L 424.480585 147.858059 
L 427.019487 142.790575 
L 429.050609 139.191252 
L 431.081731 136.044541 
L 433.112853 133.389272 
L 434.636195 131.740281 
L 436.159536 130.397742 
L 437.682878 129.370979 
L 439.20622 128.667121 
L 440.729561 128.291058 
L 442.252903 128.2454 
L 443.776244 128.530465 
L 445.299586 129.144273 
L 446.822927 130.082561 
L 448.346269 131.338813 
L 449.86961 132.904306 
L 451.392952 134.768167 
L 453.424074 137.694785 
L 455.455196 141.092481 
L 457.486318 144.919327 
L 460.02522 150.233974 
L 463.071903 157.253919 
L 466.626367 166.081741 
L 478.813099 197.019663 
L 481.859782 203.811073 
L 484.398685 208.886068 
L 486.429807 212.492251 
L 488.460929 215.646486 
L 490.492051 218.309851 
L 492.015392 219.96523 
L 493.538734 221.314377 
L 495.062075 222.347924 
L 496.585417 223.058694 
L 498.108758 223.44175 
L 499.6321 223.494431 
L 501.155441 223.216373 
L 502.678783 222.609507 
L 504.202125 221.678045 
L 505.725466 220.428459 
L 507.248808 218.869424 
L 508.772149 217.011768 
L 510.803271 214.092956 
L 512.834393 210.702445 
L 514.865515 206.882074 
L 517.404418 201.5744 
L 520.451101 194.561008 
L 524.005564 185.738102 
L 536.192297 154.793264 
L 539.23898 147.994608 
L 541.777882 142.912116 
L 543.809004 139.299086 
L 545.840126 136.137336 
L 547.871248 133.465883 
L 549.39459 131.804123 
L 550.917931 130.448371 
L 552.441273 129.408043 
L 553.964614 128.690363 
L 555.487956 128.300317 
L 557.011297 128.240611 
L 558.534639 128.511662 
L 560.05798 129.111586 
L 561.581322 130.036217 
L 563.104663 131.279134 
L 564.628005 132.831706 
L 566.151346 134.683151 
L 568.182469 137.594147 
L 570.213591 140.977463 
L 572.244713 144.791347 
L 574.783615 150.092031 
L 575.799176 152.357453 
L 575.799176 152.357453 
" clip-path="url(#pceb048c1c0)" style="fill: none; stroke-dasharray: 7.4,3.2; stroke-dashoffset: 0; stroke: #000000; stroke-width: 2"/>
   </g>
   <g id="line2d_17">
    <path d="M 68.526449 90.396886 
L 71.065351 77.009194 
L 73.096473 67.280206 
L 75.127595 58.554537 
L 77.158717 50.940195 
L 78.682059 46.015984 
L 80.205401 41.804475 
L 81.728742 38.334947 
L 82.744303 36.44625 
L 83.759864 34.903955 
L 84.775425 33.7128 
L 85.790986 32.876438 
L 86.806547 32.397419 
L 87.822108 32.277188 
L 88.837669 32.516081 
L 89.85323 33.113329 
L 90.868791 34.067061 
L 91.884352 35.374313 
L 92.899913 37.031041 
L 93.915474 39.03214 
L 95.438816 42.66575 
L 96.962157 47.035083 
L 98.485499 52.110153 
L 100.00884 57.856269 
L 102.039962 66.493389 
L 104.071084 76.149503 
L 106.609987 89.475692 
L 109.148889 103.965947 
L 112.703353 125.699056 
L 118.796719 164.819222 
L 123.874524 196.789169 
L 126.921207 214.721612 
L 129.46011 228.572474 
L 131.999012 241.201728 
L 134.030134 250.301127 
L 136.061256 258.421259 
L 138.092378 265.496856 
L 139.61572 270.087072 
L 141.139061 274.045175 
L 142.662403 277.360207 
L 144.185745 280.026064 
L 145.201306 281.441821 
L 146.216867 282.569193 
L 147.232428 283.409911 
L 148.247989 283.966626 
L 149.26355 284.242883 
L 150.279111 284.243103 
L 151.294672 283.97256 
L 152.310233 283.437351 
L 153.325794 282.644368 
L 154.341355 281.601267 
L 155.356916 280.316429 
L 156.880257 277.955939 
L 158.403599 275.105424 
L 159.92694 271.801178 
L 161.958062 266.757333 
L 163.989184 261.074741 
L 166.528087 253.232188 
L 169.57477 243.017044 
L 174.652575 225.011316 
L 179.73038 207.238529 
L 182.777063 197.32968 
L 185.315966 189.761869 
L 187.854868 182.968437 
L 189.88599 178.167095 
L 191.917112 173.977708 
L 193.440454 171.257378 
L 194.963795 168.909265 
L 196.487137 166.938895 
L 198.010478 165.347973 
L 199.53382 164.134422 
L 201.057161 163.292463 
L 202.580503 162.812718 
L 203.596064 162.687917 
L 205.119405 162.781696 
L 206.642747 163.196221 
L 208.166089 163.910302 
L 209.68943 164.900018 
L 211.212772 166.138976 
L 213.243894 168.128923 
L 215.275016 170.437984 
L 217.813918 173.654401 
L 222.891723 180.579156 
L 226.446187 185.24965 
L 228.985089 188.218781 
L 231.016211 190.261186 
L 233.047333 191.933493 
L 234.570675 192.907643 
L 236.094016 193.615847 
L 237.617358 194.037674 
L 239.140699 194.155533 
L 240.664041 193.954826 
L 242.187383 193.424082 
L 243.710724 192.555055 
L 245.234066 191.342801 
L 246.757407 189.785722 
L 248.280749 187.885583 
L 249.80409 185.647495 
L 251.327432 183.079874 
L 253.358554 179.164367 
L 255.389676 174.720334 
L 257.420798 169.793365 
L 259.9597 163.038955 
L 263.006383 154.224662 
L 267.068627 141.673832 
L 275.193116 116.300179 
L 278.239799 107.578371 
L 280.778701 100.96595 
L 282.809823 96.214632 
L 284.840945 92.019624 
L 286.364287 89.277673 
L 287.887628 86.909867 
L 289.41097 84.938325 
L 290.934311 83.382471 
L 291.949872 82.584483 
L 292.965433 81.982865 
L 293.980994 81.581202 
L 294.996555 81.382471 
L 296.012116 81.389027 
L 297.027677 81.602597 
L 298.043238 82.024279 
L 299.058799 82.654534 
L 300.07436 83.49319 
L 301.597702 85.139989 
L 303.121043 87.248368 
L 304.644385 89.809837 
L 306.167727 92.812862 
L 307.691068 96.242956 
L 309.72219 101.450441 
L 311.753312 107.337717 
L 313.784434 113.848655 
L 316.323337 122.767652 
L 319.37002 134.433272 
L 322.924483 149.043127 
L 328.510069 173.162462 
L 334.603435 199.292435 
L 338.157898 213.617901 
L 341.204582 224.995617 
L 343.743484 233.682908 
L 346.282387 241.539529 
L 348.313509 247.169986 
L 350.344631 252.180736 
L 352.375753 256.545323 
L 353.899094 259.383242 
L 355.422436 261.842138 
L 356.945777 263.919514 
L 358.469119 265.615273 
L 359.99246 266.93164 
L 361.515802 267.873082 
L 363.039143 268.446197 
L 364.054704 268.627822 
L 365.070265 268.652559 
L 366.085826 268.523784 
L 367.609168 268.050988 
L 369.132509 267.255029 
L 370.655851 266.151141 
L 372.179193 264.755808 
L 373.702534 263.086581 
L 375.733656 260.466867 
L 377.764778 257.438674 
L 379.7959 254.04904 
L 382.334803 249.376447 
L 385.381486 243.253055 
L 388.935949 235.593714 
L 394.521535 222.959977 
L 402.646023 204.602461 
L 407.216048 194.80086 
L 411.278292 186.562003 
L 415.340536 178.801777 
L 419.40278 171.502651 
L 423.972804 163.777615 
L 429.050609 155.681268 
L 434.636195 147.214059 
L 440.729561 138.377827 
L 446.315147 130.663157 
L 450.377391 125.380923 
L 453.931854 121.089007 
L 456.978537 117.738449 
L 459.51744 115.2362 
L 462.056342 113.048815 
L 464.087464 111.559198 
L 466.118586 110.328863 
L 468.149708 109.383116 
L 469.67305 108.875238 
L 471.196392 108.550841 
L 472.719733 108.419003 
L 474.243075 108.48805 
L 475.766416 108.765438 
L 477.289758 109.25763 
L 478.813099 109.969993 
L 480.336441 110.906692 
L 481.859782 112.070602 
L 483.383124 113.463223 
L 485.414246 115.675709 
L 487.445368 118.290694 
L 489.47649 121.299244 
L 491.507612 124.687425 
L 494.046514 129.427181 
L 496.585417 134.682364 
L 499.6321 141.58472 
L 503.186564 150.302475 
L 507.756588 162.209338 
L 516.896637 186.276916 
L 520.451101 194.937416 
L 523.497784 201.741264 
L 526.036686 206.862766 
L 528.067808 210.547633 
L 530.09893 213.830827 
L 532.130052 216.685485 
L 534.161174 219.090474 
L 535.684516 220.589831 
L 537.207858 221.823641 
L 538.731199 222.789949 
L 540.254541 223.488879 
L 541.777882 223.922648 
L 543.301224 224.095546 
L 544.824565 224.013916 
L 546.347907 223.686098 
L 547.871248 223.122365 
L 549.39459 222.334842 
L 550.917931 221.337396 
L 552.949053 219.707926 
L 554.980175 217.773783 
L 557.519078 214.996361 
L 560.565761 211.261958 
L 565.135785 205.205329 
L 570.721371 197.854773 
L 573.768054 194.223296 
L 575.799176 192.051974 
L 575.799176 192.051974 
" clip-path="url(#pceb048c1c0)" style="fill: none; stroke: #00ffff; stroke-width: 6; stroke-linecap: square"/>
   </g>
   <g id="patch_3">
    <path d="M 43.162813 296.877188 
L 43.162813 19.677188 
" style="fill: none; stroke: #000000; stroke-width: 0.8; stroke-linejoin: miter; stroke-linecap: square"/>
   </g>
   <g id="patch_4">
    <path d="M 601.162812 296.877188 
L 601.162812 19.677188 
" style="fill: none; stroke: #000000; stroke-width: 0.8; stroke-linejoin: miter; stroke-linecap: square"/>
   </g>
   <g id="patch_5">
    <path d="M 43.162813 296.877188 
L 601.162812 296.877188 
" style="fill: none; stroke: #000000; stroke-width: 0.8; stroke-linejoin: miter; stroke-linecap: square"/>
   </g>
   <g id="patch_6">
    <path d="M 43.162813 19.677188 
L 601.162812 19.677188 
" style="fill: none; stroke: #000000; stroke-width: 0.8; stroke-linejoin: miter; stroke-linecap: square"/>
   </g>
   <g id="text_15">
    <!-- Sine Wave -->
    <g transform="translate(269.306094 13.677188) scale(0.18 -0.18)">
     <defs>
      <path id="DejaVuSans-Bold-53" d="M 3834 4519 
L 3834 3531 
Q 3450 3703 3084 3790 
Q 2719 3878 2394 3878 
Q 1963 3878 1756 3759 
Q 1550 3641 1550 3391 
Q 1550 3203 1689 3098 
Q 1828 2994 2194 2919 
L 2706 2816 
Q 3484 2659 3812 2340 
Q 4141 2022 4141 1434 
Q 4141 663 3683 286 
Q 3225 -91 2284 -91 
Q 1841 -91 1394 -6 
Q 947 78 500 244 
L 500 1259 
Q 947 1022 1364 901 
Q 1781 781 2169 781 
Q 2563 781 2772 912 
Q 2981 1044 2981 1288 
Q 2981 1506 2839 1625 
Q 2697 1744 2272 1838 
L 1806 1941 
Q 1106 2091 782 2419 
Q 459 2747 459 3303 
Q 459 4000 909 4375 
Q 1359 4750 2203 4750 
Q 2588 4750 2994 4692 
Q 3400 4634 3834 4519 
z
" transform="scale(0.015625)"/>
      <path id="DejaVuSans-Bold-69" d="M 538 3500 
L 1656 3500 
L 1656 0 
L 538 0 
L 538 3500 
z
M 538 4863 
L 1656 4863 
L 1656 3950 
L 538 3950 
L 538 4863 
z
" transform="scale(0.015625)"/>
      <path id="DejaVuSans-Bold-6e" d="M 4056 2131 
L 4056 0 
L 2931 0 
L 2931 347 
L 2931 1631 
Q 2931 2084 2911 2256 
Q 2891 2428 2841 2509 
Q 2775 2619 2662 2680 
Q 2550 2741 2406 2741 
Q 2056 2741 1856 2470 
Q 1656 2200 1656 1722 
L 1656 0 
L 538 0 
L 538 3500 
L 1656 3500 
L 1656 2988 
Q 1909 3294 2193 3439 
Q 2478 3584 2822 3584 
Q 3428 3584 3742 3212 
Q 4056 2841 4056 2131 
z
" transform="scale(0.015625)"/>
      <path id="DejaVuSans-Bold-65" d="M 4031 1759 
L 4031 1441 
L 1416 1441 
Q 1456 1047 1700 850 
Q 1944 653 2381 653 
Q 2734 653 3104 758 
Q 3475 863 3866 1075 
L 3866 213 
Q 3469 63 3072 -14 
Q 2675 -91 2278 -91 
Q 1328 -91 801 392 
Q 275 875 275 1747 
Q 275 2603 792 3093 
Q 1309 3584 2216 3584 
Q 3041 3584 3536 3087 
Q 4031 2591 4031 1759 
z
M 2881 2131 
Q 2881 2450 2695 2645 
Q 2509 2841 2209 2841 
Q 1884 2841 1681 2658 
Q 1478 2475 1428 2131 
L 2881 2131 
z
" transform="scale(0.015625)"/>
      <path id="DejaVuSans-Bold-20" transform="scale(0.015625)"/>
      <path id="DejaVuSans-Bold-57" d="M 191 4666 
L 1344 4666 
L 2150 1275 
L 2950 4666 
L 4109 4666 
L 4909 1275 
L 5716 4666 
L 6859 4666 
L 5759 0 
L 4372 0 
L 3525 3547 
L 2688 0 
L 1300 0 
L 191 4666 
z
" transform="scale(0.015625)"/>
      <path id="DejaVuSans-Bold-61" d="M 2106 1575 
Q 1756 1575 1579 1456 
Q 1403 1338 1403 1106 
Q 1403 894 1545 773 
Q 1688 653 1941 653 
Q 2256 653 2472 879 
Q 2688 1106 2688 1447 
L 2688 1575 
L 2106 1575 
z
M 3816 1997 
L 3816 0 
L 2688 0 
L 2688 519 
Q 2463 200 2181 54 
Q 1900 -91 1497 -91 
Q 953 -91 614 226 
Q 275 544 275 1050 
Q 275 1666 698 1953 
Q 1122 2241 2028 2241 
L 2688 2241 
L 2688 2328 
Q 2688 2594 2478 2717 
Q 2269 2841 1825 2841 
Q 1466 2841 1156 2769 
Q 847 2697 581 2553 
L 581 3406 
Q 941 3494 1303 3539 
Q 1666 3584 2028 3584 
Q 2975 3584 3395 3211 
Q 3816 2838 3816 1997 
z
" transform="scale(0.015625)"/>
      <path id="DejaVuSans-Bold-76" d="M 97 3500 
L 1216 3500 
L 2088 1081 
L 2956 3500 
L 4078 3500 
L 2700 0 
L 1472 0 
L 97 3500 
z
" transform="scale(0.015625)"/>
     </defs>
     <use xlink:href="#DejaVuSans-Bold-53"/>
     <use xlink:href="#DejaVuSans-Bold-69" x="72.021484"/>
     <use xlink:href="#DejaVuSans-Bold-6e" x="106.298828"/>
     <use xlink:href="#DejaVuSans-Bold-65" x="177.490234"/>
     <use xlink:href="#DejaVuSans-Bold-20" x="245.3125"/>
     <use xlink:href="#DejaVuSans-Bold-57" x="280.126953"/>
     <use xlink:href="#DejaVuSans-Bold-61" x="386.804688"/>
     <use xlink:href="#DejaVuSans-Bold-76" x="454.285156"/>
     <use xlink:href="#DejaVuSans-Bold-65" x="519.470703"/>
    </g>
   </g>
  </g>
 </g>
 <defs>
  <clipPath id="pceb048c1c0">
   <rect x="43.162813" y="19.677188" width="558" height="277.2"/>
  </clipPath>
 </defs>
</svg>
